<svg xmlns="http://www.w3.org/2000/svg" viewBox="0 0 320 80" width="320" height="80" preserveAspectRatio="none"><path d="M14 40 C14 22 26 10 44 10 H276 C294 10 306 22 306 40 C306 58 294 70 276 70 H44 C26 70 14 58 14 40Z" fill="#fbf7ec" stroke="#12233f" stroke-width="2.2"/><path d="M20 40 C20 26 30 16 46 16 H274 C290 16 300 26 300 40 C300 54 290 64 274 64 H46 C30 64 20 54 20 40Z" fill="none" stroke="#c9a24d" stroke-width="1.2"/><circle cx="8" cy="40" r="6" fill="#fff" stroke="#12233f" stroke-width="1.6"/><circle cx="312" cy="40" r="6" fill="#fff" stroke="#12233f" stroke-width="1.6"/><circle cx="8" cy="40" r="2.4" fill="#e5589a"/><circle cx="312" cy="40" r="2.4" fill="#e5589a"/></svg>